<?xml version="1.0" encoding="utf-8"?>
<!-- Generator: Adobe Illustrator 26.5.0, SVG Export Plug-In . SVG Version: 6.00 Build 0)  -->
<svg version="1.1" id="Layer_1" xmlns="http://www.w3.org/2000/svg" xmlns:xlink="http://www.w3.org/1999/xlink" x="0px" y="0px"
	 viewBox="160 200 580 480" style="enable-background:new 0 0 900 900;" xml:space="preserve">
<style type="text/css">
	.st0{fill:#FFFFFF;}
	.st1{fill:#00C169;}
	.st2{fill:#004E45;}
	.st3{fill-rule:evenodd;clip-rule:evenodd;fill:#004E45;}
	.st4{fill-rule:evenodd;clip-rule:evenodd;fill:#00C169;}
	.st5{fill-rule:evenodd;clip-rule:evenodd;fill:#FFFFFF;}
	.st6{display:none;fill-rule:evenodd;clip-rule:evenodd;fill:none;stroke:#000000;stroke-width:0.75;stroke-miterlimit:10;}
</style>
<g>
	<g>
		<g>
			<path class="st2" d="M259.6,561.11c-5.97,0.14-12.07,0.21-18.32,0.21c-6.25,0-12.35-0.07-18.31-0.21
				c-5.96-0.14-12.07-0.3-18.31-0.5c0.47,1.9,0.71,3.36,0.71,4.4c0,1.33-0.23,2.84-0.71,4.54c1.99-0.28,4.24-0.52,6.74-0.71
				c2.51-0.19,5.11-0.35,7.81-0.5c2.7-0.14,5.39-0.23,8.09-0.28c2.7-0.05,5.27-0.07,7.74-0.07c0.29,9.75,0.43,19.55,0.43,29.39
				v24.42c0,6.25-0.12,12.4-0.35,18.46c-0.24,6.06-0.5,12.02-0.78,17.89c2.17-0.19,4.49-0.28,6.95-0.28s4.78,0.09,6.96,0.28
				c-0.29-5.87-0.55-11.83-0.78-17.89c-0.24-6.06-0.36-12.21-0.36-18.46v-24.42c0-9.84,0.14-19.64,0.43-29.39
				c2.46,0,5.04,0.03,7.74,0.07c2.7,0.05,5.4,0.14,8.1,0.28c2.7,0.14,5.3,0.31,7.81,0.5c2.51,0.19,4.76,0.43,6.75,0.71
				c-0.48-1.7-0.71-3.17-0.71-4.4c0-1.14,0.23-2.65,0.71-4.55C271.67,560.81,265.56,560.97,259.6,561.11"/>
			<path class="st2" d="M353.59,643.89c-2.46-3.07-5.02-6.29-7.67-9.65c-2.65-3.36-5.21-6.58-7.67-9.66
				c-2.46-3.07-4.68-5.89-6.67-8.45c-1.99-2.55-3.55-4.54-4.69-5.96c2.75-0.38,5.8-1.16,9.16-2.34c3.36-1.18,6.51-2.84,9.44-4.97
				c2.93-2.13,5.42-4.83,7.45-8.1c2.04-3.26,3.05-7.17,3.05-11.71c0-4.26-0.78-7.81-2.34-10.65c-1.56-2.84-3.69-5.13-6.39-6.89
				c-2.69-1.75-5.84-3.01-9.44-3.76c-3.6-0.76-7.38-1.14-11.36-1.14c-2.75,0-5.44,0.12-8.09,0.36c-2.65,0.24-5.35,0.35-8.1,0.35
				c-2.74,0-5.44-0.07-8.09-0.21c-2.65-0.14-5.35-0.31-8.1-0.5c0.28,6.25,0.54,12.38,0.78,18.39c0.23,6.01,0.36,12.14,0.36,18.38
				v24.42c0,6.25-0.12,12.4-0.36,18.46c-0.24,6.06-0.5,12.02-0.78,17.89c2.18-0.19,4.5-0.28,6.96-0.28c2.46,0,4.78,0.09,6.95,0.28
				c-0.28-5.87-0.54-11.83-0.78-17.89c-0.24-6.06-0.36-12.21-0.36-18.46v-10.37h5.4c3.03,3.13,6.36,6.94,10.01,11.43
				c3.64,4.49,7.22,9.01,10.72,13.56c3.5,4.54,6.7,8.8,9.58,12.78c2.89,3.98,5.04,6.96,6.46,8.94c1.32-0.19,2.7-0.28,4.12-0.28h4.12
				h4.26c1.42,0,2.84,0.09,4.26,0.28c-1.33-1.33-3.08-3.26-5.25-5.82C358.37,649.78,356.05,646.97,353.59,643.89 M316.4,606.19
				c-1.9,0-3.62-0.05-5.18-0.14c-1.56-0.09-3.01-0.29-4.33-0.57v-8.09c0-5.11,0.09-10.22,0.29-15.33
				c0.19-5.11,0.38-10.27,0.57-15.48c1.51-0.19,3.36-0.36,5.54-0.5c2.18-0.14,4.92-0.21,8.24-0.21c2.46,0,4.97,0.26,7.52,0.78
				c2.56,0.52,4.92,1.49,7.1,2.91c2.17,1.42,3.95,3.34,5.32,5.75c1.37,2.41,2.06,5.46,2.06,9.16c0,4.26-0.88,7.79-2.63,10.58
				c-1.75,2.79-3.95,5.02-6.6,6.67c-2.65,1.66-5.56,2.82-8.73,3.48C322.38,605.87,319.33,606.19,316.4,606.19"/>
			<path class="st2" d="M434.25,650.07c-2.27,0.47-4.95,0.83-8.02,1.06c-3.08,0.24-6.34,0.43-9.8,0.57
				c-3.46,0.14-6.98,0.21-10.57,0.21h-9.94c-0.09-1.8-0.17-4.45-0.21-7.95c-0.05-3.5-0.08-7.95-0.08-13.35v-8.52v-5.54
				c0-1.51,0.03-2.77,0.08-3.76c0.04-0.99,0.07-1.92,0.07-2.77c1.7,0,4,0.03,6.89,0.07c2.89,0.05,5.96,0.1,9.23,0.14
				c3.27,0.05,6.53,0.17,9.8,0.36c3.26,0.19,6.13,0.43,8.59,0.71c-0.29-1.42-0.43-2.84-0.43-4.26c0-1.51,0.14-2.98,0.43-4.4
				c-2.08,0.19-4.28,0.36-6.6,0.5c-2.32,0.14-4.85,0.29-7.6,0.43c-2.74,0.14-5.77,0.26-9.08,0.36c-3.31,0.09-7.05,0.14-11.22,0.14
				c0-1.8-0.02-4.45-0.07-7.95c-0.05-3.5-0.08-7.1-0.08-10.79c0-3.5,0.08-6.63,0.21-9.37c0.14-2.74,0.26-5.63,0.36-8.66
				c4.63,0,8.61,0.07,11.92,0.21c3.31,0.14,6.37,0.31,9.16,0.49c2.79,0.19,5.44,0.38,7.95,0.57c2.51,0.19,5.28,0.38,8.31,0.57
				c-0.28-1.42-0.43-2.84-0.43-4.26c0-1.42,0.14-2.84,0.43-4.26c-4.26,0.19-8.47,0.36-12.63,0.5c-4.17,0.14-8.38,0.21-12.64,0.21
				c-4.26,0-8.49-0.07-12.71-0.21c-4.21-0.14-8.45-0.31-12.71-0.5c0.29,6.06,0.54,12.12,0.78,18.18c0.24,6.06,0.36,12.21,0.36,18.46
				v24.42c0,6.24-0.12,12.38-0.36,18.39c-0.24,6.01-0.5,12.05-0.78,18.1c4.35-0.19,8.66-0.28,12.92-0.28h12.92h12.85
				c4.21,0,8.45,0.09,12.7,0.28c-0.29-0.95-0.42-2.17-0.42-3.69c0-0.66,0.02-1.39,0.07-2.2
				C433.94,651.47,434.06,650.73,434.25,650.07"/>
			<path class="st2" d="M514.97,612.3c-4.87-3.69-11.52-5.73-19.95-6.11v-0.28c7.1-1.61,12.85-4.4,17.25-8.38
				c4.4-3.98,6.6-9.46,6.6-16.47c0-3.98-0.81-7.29-2.41-9.94c-1.61-2.65-3.79-4.76-6.53-6.32c-2.74-1.56-5.91-2.65-9.51-3.26
				c-3.6-0.61-7.43-0.92-11.5-0.92c-2.46,0-4.97,0.12-7.52,0.36c-2.56,0.24-5.07,0.36-7.53,0.36c-2.46,0-4.97-0.07-7.52-0.21
				c-2.56-0.14-5.07-0.3-7.53-0.5c0.29,6.06,0.55,12.12,0.78,18.17c0.23,6.06,0.36,12.21,0.36,18.46v24.42
				c0,6.25-0.12,12.38-0.36,18.39c-0.23,6.01-0.5,12.04-0.78,18.1c2.27-0.19,4.57-0.28,6.88-0.28h6.89c2.27,0,4.56,0.05,6.89,0.14
				c2.32,0.09,4.61,0.14,6.88,0.14c4.17,0,8.35-0.45,12.57-1.35c4.21-0.9,8.07-2.46,11.57-4.69c3.5-2.22,6.34-5.13,8.52-8.73
				c2.17-3.6,3.26-8.04,3.26-13.35C522.29,621.91,519.85,615.99,514.97,612.3 M471.6,593.56c0-4.54,0.09-9.04,0.29-13.49
				c0.19-4.45,0.38-8.94,0.57-13.49c1.33-0.19,2.84-0.36,4.55-0.5c1.7-0.14,3.78-0.21,6.24-0.21c2.75,0,5.49,0.21,8.24,0.64
				c2.74,0.43,5.2,1.28,7.38,2.56c2.18,1.28,3.98,3.08,5.39,5.39c1.42,2.32,2.13,5.42,2.13,9.3c0,3.98-0.78,7.27-2.35,9.87
				c-1.56,2.6-3.62,4.68-6.17,6.25c-2.56,1.56-5.47,2.67-8.73,3.33c-3.26,0.67-6.55,0.99-9.87,0.99h-7.67V593.56z M507.38,639.63
				c-1.23,2.98-2.89,5.49-4.97,7.53c-2.08,2.04-4.52,3.57-7.31,4.61c-2.79,1.04-5.71,1.56-8.73,1.56c-2.55,0-5.07-0.08-7.53-0.22
				c-2.46-0.14-4.59-0.3-6.39-0.49c-0.19-4.83-0.38-9.61-0.57-14.34c-0.19-4.73-0.29-9.51-0.29-14.34v-14.48h6.39
				c4.73,0,9.02,0.28,12.85,0.85c3.83,0.57,7.12,1.59,9.87,3.05c2.75,1.47,4.85,3.51,6.32,6.11c1.47,2.61,2.2,5.94,2.2,10.01
				C509.22,633.26,508.61,636.65,507.38,639.63"/>
			<path class="st2" d="M607.73,634.3c-2.42-5.54-4.99-11.52-7.74-17.96c-2.75-6.44-5.49-12.92-8.24-19.45
				c-2.74-6.53-5.44-12.99-8.1-19.38c-2.65-6.39-5.11-12.33-7.38-17.82h-2.7c-7.38,16.94-14.72,33.6-22.01,49.98
				c-7.29,16.37-14.76,32.84-22.43,49.41c1.61-0.19,3.36-0.28,5.25-0.28c1.89,0,3.64,0.09,5.25,0.28c1.23-4.35,3.08-9.87,5.54-16.54
				c2.46-6.67,5.2-13.7,8.23-21.08c0.04,0,2.81-6.53,2.81-6.53C556.2,614.93,562,601,562,601l9.59-22.14c0,0,15.59,36.07,15.5,36.07
				l2.48,7.08c1.17,2.96,2.42,6.05,3.75,9.31c1.42,3.45,2.81,6.86,4.19,10.22c1.37,3.36,2.63,6.58,3.76,9.66
				c1.13,3.08,2.04,5.7,2.7,7.88c1.33-0.19,2.58-0.28,3.76-0.28h3.76h3.76c1.18,0,2.44,0.09,3.76,0.28
				c-1.23-2.27-2.81-5.58-4.75-9.94C612.32,644.79,610.15,639.84,607.73,634.3"/>
			<path class="st2" d="M689.81,561.33c-1.33,0-3.17-0.23-5.54-0.71c-1.89,4.07-3.93,8.26-6.1,12.57
				c-2.18,4.31-4.45,8.59-6.82,12.85c-2.37,4.26-4.73,8.42-7.1,12.49c-2.37,4.07-4.64,7.81-6.81,11.22
				c-4.92-8.61-9.58-16.89-13.99-24.85c-4.4-7.95-8.73-16.04-12.99-24.28c-1.33,0.19-2.62,0.36-3.9,0.5
				c-1.28,0.14-2.58,0.21-3.91,0.21c-1.33,0-2.63-0.07-3.91-0.21c-1.27-0.14-2.58-0.31-3.9-0.5c0.95,1.52,2.32,3.76,4.12,6.75
				c1.8,2.98,3.81,6.34,6.04,10.08c2.22,3.74,4.57,7.67,7.03,11.79c2.46,4.12,4.8,8.04,7.03,11.78c2.23,3.74,4.26,7.15,6.11,10.22
				c1.84,3.08,3.24,5.42,4.19,7.03c0,7.67-0.05,15-0.14,22.01c-0.09,7-0.42,12.97-0.99,17.89c2.17-0.19,4.49-0.29,6.95-0.29
				c2.46,0,4.78,0.09,6.96,0.29c-0.19-1.99-0.36-4.62-0.5-7.88c-0.14-3.27-0.26-6.82-0.35-10.65c-0.1-3.83-0.17-7.74-0.21-11.72
				c-0.05-3.98-0.07-7.71-0.07-11.21c1.51-2.93,3.31-6.22,5.39-9.87c2.08-3.64,4.5-7.74,7.24-12.28c2.74-4.54,5.91-9.61,9.51-15.19
				c3.6-5.58,7.67-11.83,12.21-18.74C692.98,561.09,691.13,561.33,689.81,561.33"/>
			<path class="st1" d="M553.38,621.44c3.64-0.25,7.36-0.7,11.14-1.35c21.38-3.69,39.37-13.11,48.99-24.3
				c-3.64,0.25-7.36,0.7-11.14,1.35C580.99,600.84,563,610.25,553.38,621.44"/>
		</g>
	</g>
	<g>
		<g>
			<path class="st3" d="M399.9,429.23c-10.58,6.57-20.31,11.39-29.13,14.6l0,0c-50.59,19.49-87.85-6.27-73.82-54.79
				c-18.63,63.89,18.86,112.42,129.93,66.79c61.17-25.14,170.94-105.46,219.77-154.52c11.34-11.39,15.87-20.63,19.78-35.69
				c7.21-27.89,12.26-54.87,14.95-81.01C629.25,243.53,466.66,387.59,399.9,429.23L399.9,429.23z"/>
			<path class="st3" d="M321.33,480.28c37.56,41.72,124.79,23,261.7-56.25c12.95-7.49,16.86-11.54,21.54-27.97
				c4.68-16.58,8.36-33.62,11.11-51.2c-2.15,1.76-4.29,3.52-6.52,5.35c-37.94,31.18-79.26,61.06-121.35,86.51
				c-40.32,24.38-94.13,50.9-142.12,48.3C337.27,484.56,328.99,483.11,321.33,480.28L321.33,480.28z"/>
			<path class="st3" d="M329.76,501.84c30.12,31.1,99.42,31.18,207.89,0.08c20.08-5.73,21.39-4.74,33.19-22.77
				c8.74-13.37,13.8-28.2,17.94-45.17c-29.13,16.81-59.03,32.86-89.77,46.54c-23.76,10.62-48.75,20.25-74.05,26.44
				C394.53,514.44,357.81,518.19,329.76,501.84L329.76,501.84z"/>
		</g>
		<g>
			<path class="st4" d="M321.59,394.28c7.4-17.17,21.72-36.99,44-57.32c0.87-0.79,0.96-2.13,0.19-3.02l-19.05-22.03
				c-0.84-0.97-2.34-1-3.22-0.07c-19.26,20.56-33.44,42.68-41.9,63.77c-0.18,0.45-0.07,0.96,0.27,1.3l17.76,17.76
				C320.24,395.27,321.25,395.07,321.59,394.28z"/>
			<path class="st4" d="M318.95,399.07l-17.7-17.7c-0.62-0.62-1.69-0.39-1.98,0.44c-0.85,2.42-1.63,4.83-2.33,7.22
				c-15.02,57.7,22.16,83.99,73.82,54.79c-43.33,15.88-64.42-6.57-51.53-43.51C319.39,399.89,319.28,399.4,318.95,399.07z"/>
		</g>
		<g>
			<path class="st4" d="M370.72,371.82l-13.6-13.6c-0.49-0.49-1.28-0.47-1.74,0.04c-11.52,12.8-21.38,26.2-27.16,39.95
				c-12.57,30.11-2.22,49.9,31.81,40.96c-26.21-3.39-24.37-27.98,10.71-65.68C371.19,373.01,371.18,372.27,370.72,371.82z"/>
			<path class="st4" d="M411.26,304.61c-15.36,14.59-34.95,31.25-51.79,49.21c-0.44,0.47-0.43,1.21,0.03,1.67l13.67,13.67
				c0.47,0.47,1.24,0.47,1.71-0.01c13.33-13.71,30.86-29.03,52.82-45.59c0.56-0.42,0.64-1.22,0.19-1.75l-14.89-17.11
				C412.54,304.18,411.75,304.14,411.26,304.61z"/>
		</g>
		<g>
			<path class="st4" d="M426.72,356.58c14.82-10.74,32.07-22.19,51.46-34.05c0.63-0.39,0.77-1.25,0.28-1.81l-12.36-14.28
				c-0.38-0.44-1.03-0.55-1.53-0.24c-15.26,9.33-33.87,23.52-50.42,37.41c-0.54,0.45-0.57,1.27-0.07,1.77l11.09,11.09
				C425.59,356.87,426.24,356.93,426.72,356.58z"/>
			<path class="st4" d="M378.24,396.57l-8.52-8.52c-0.5-0.5-1.32-0.46-1.77,0.08c-6.31,7.63-11.88,15.73-15.42,23.84
				c-9.66,21.86,12.8,24.3,27.83,19.41c-18.92-2.29-18.31-14.6-2.06-33.16C378.71,397.74,378.69,397.02,378.24,396.57z"/>
			<path class="st4" d="M382.32,393.81c9.42-9.86,22.76-21.24,39.51-33.65c0.59-0.44,0.66-1.3,0.14-1.82l-10.78-10.78
				c-0.44-0.44-1.16-0.47-1.63-0.06c-7.12,6.1-13.74,12.04-19.39,17.39c-5.84,5.49-12.26,11.82-18.28,18.63
				c-0.42,0.48-0.4,1.2,0.05,1.65l8.67,8.67C381.08,394.31,381.86,394.3,382.32,393.81z"/>
		</g>
	</g>
</g>
<rect x="346.07" y="295.53" class="st6" width="269.86" height="200.32"/>
</svg>
